<svg version="1.1" id="authense" xmlns="http://www.w3.org/2000/svg" x="0" y="0" viewBox="0 0 300 300" xml:space="preserve"><style>.st0{fill:#006937}.st1{fill:#aa9767}.st2{fill:#fff}</style><path class="st0" d="M150.5 292l-2.8-1.1c-19.9-7.9-48.5-21.8-71.2-43.3-25.3-23.9-38.2-51.8-38.2-83V8h223.4v156.6c0 71.7-67.9 109.9-108.4 126.3l-2.8 1.1z"/><path class="st1" d="M122.1 31.4c-3.8-1.5-6.4-5.3-6.4-10.6v-5.3h-6.3v5.4c0 8.1 5 14.5 11.5 16.3-1.8 3.1-5.2 5.1-9.5 5.1h-1.9v6h2c10.1 0 17-6.9 17-16.4V15.5h-6.3v15.9zm-21.3-15.9L94 29.7V15.5h-6.3v32.9H94V34.3h6.4v14.1h6.3V28.8h-6l7-13.3zm-55 6.2h6.4v26.7h6.3V21.7h6.4v-6.2H45.8z"/><path class="st2" d="M247.8 15.5v15.9c-3.8-1.5-6.4-5.3-6.4-10.6v-5.3h-6.3v5.4c0 8.1 5 14.5 11.5 16.3-1.8 3.1-5.2 5.1-9.5 5.1h-1.9v6h2c10.1 0 17-6.9 17-16.4V15.5h-6.4zm3.8 16.4c0 7.7-6.1 14-14.2 14v-1.3c5.8 0 10.7-3.5 12.4-9-6.9-.9-12.2-6.9-12.2-14.7v-3.1h1.2v3.1c0 7.1 4.9 12.7 11.2 13.5.2-.8.3-1.7.3-2.5V17.8h1.2v14.1z"/><path class="st1" d="M75.4 14.9c-5.5 0-9.5 4-9.5 9.5v15c0 5.5 4 9.5 9.5 9.5s9.5-4 9.5-9.5v-15c.1-5.5-3.9-9.5-9.5-9.5zm3.2 24.5c0 2.1-1.4 3.4-3.2 3.4-1.8 0-3.2-1.3-3.2-3.4V24.5c0-2.1 1.4-3.4 3.2-3.4 1.8 0 3.2 1.3 3.2 3.4v14.9z"/><path class="st2" d="M193 33.4v15h6.3v-15c0-7 4.6-11.5 10.2-11.5v-6.3c-9.1-.1-16.5 7.2-16.5 17.8zm14.2-15v1.2c-5.9 1.1-10.4 6.3-10.4 13.8v12.5h-1.2V33.4c0-8.2 5-14 11.6-15zm10.9.9h-2.5v25.4h2.5c7.1 0 12.7-5.6 12.7-12.7s-5.6-12.7-12.7-12.7zm0 22.7V21.9c5.7 0 10.1 4.4 10.1 10.1s-4.4 10-10.1 10zm-46.4-10.1c0 9.2 7.4 16.5 16.5 16.5h2.5v-6.1h-2.5c-4.5 0-8.3-3.3-9.7-7.3h9.7v-6.2h-9.7c1.4-4 5.1-7.1 9.7-7.1h2.5v-6.1h-2.5c-9.1-.1-16.5 7.2-16.5 16.3zm16.7-12.7c-7.2 0-12.6 5.5-12.9 12.1h10.4v1.2h-10.4c.4 6.8 5.9 12.3 12.9 12.3v1.1c-8 0-14.2-6.4-14.2-14 0-7.7 6.3-13.9 14.2-13.9v1.2z"/><path class="st2" d="M218.1 15.5h-6.3v32.9h6.3c9.2 0 16.5-7.3 16.5-16.5 0-9.1-7.3-16.4-16.5-16.4zm0 30.2h-3.8V18.1h3.8c7.8 0 14 6.1 14 13.8s-6.2 13.8-14 13.8z"/><path class="st1" d="M140.6 14.9c-5.5 0-9.5 4-9.5 9.5v15c0 5.5 4 9.5 9.5 9.5s9.5-4 9.5-9.5v-15c0-5.5-4-9.5-9.5-9.5zm3.2 24.5c0 2.1-1.4 3.4-3.2 3.4s-3.2-1.3-3.2-3.4V24.5c0-2.1 1.4-3.4 3.2-3.4s3.2 1.3 3.2 3.4v14.9z"/><path class="st2" d="M166.3 15.5l-4.1 19.8-4.1-19.8h-6.6l7.8 32.9h5.5l7.9-32.9h-6.4zm-3.2 30.4h-1.7l-6.7-28h1.3l6.3 26.5 6.3-26.5h1.3l-6.8 28z"/><path class="st1" d="M150.5 283.9c-44.1-17.4-104.6-54.1-104.6-119.3V55.9h208.3v108.7c0 65.1-60.6 101.9-103.7 119.3"/><path class="st0" d="M235 125.8c4.4 0 7.9-3.5 7.9-7.9h-27c-.1-1.2-.2-2.4-.4-3.6l19-3.3c4.3-.8 7.2-4.8 6.4-9.1l-27 4.8c-.3-1.1-.6-2.3-1-3.4l18.4-6.7c4.1-1.5 6.2-6 4.7-10.1L210 96c-.5-1.1-1-2.1-1.5-3.2l17.2-9.9c3.8-2.2 5.1-7 2.9-10.8l-1.7 1-41.6 24c4.9 7 7.7 15.4 7.7 24.6 0 12-5 22.9-13 30.7l-21.6-51.7c-1-2.5-2.7-3.7-5.2-3.9h-10c-1.4 0-2.5.4-3.9 1.3l-15 9.8c-1.3 1-2.1 2.1-2.1 3.3v2.3h19.3L120 152.2c-8-7.8-13-18.7-13-30.7 0-9.1 2.9-17.6 7.7-24.6L73.2 73l-1.7-1c-2.2 3.8-.9 8.6 2.9 10.8l17.2 9.9c-.5 1-1 2.1-1.5 3.2l-26-9.5c-1.5 4.1.6 8.6 4.7 10.1l18.4 6.7c-.4 1.1-.7 2.3-1 3.4l-27-4.8c-.8 4.3 2.1 8.4 6.4 9.1l19 3.3c-.2 1.2-.3 2.4-.4 3.6h-27c0 4.4 3.5 7.9 7.9 7.9H84c0 1.2.1 2.5.2 3.7L58 134c.8 4.3 4.8 7.2 9.1 6.4l18.2-3.2c.2 1.2.5 2.4.9 3.6l-24.7 9c1.5 4.1 6 6.2 10.1 4.7l17-6.2c.5 1.2 1 2.3 1.5 3.5l-22.4 13c2.2 3.8 7 5.1 10.8 2.9l15.4-8.9c.7 1.1 1.4 2.2 2.1 3.2l-19.6 16.4c2.8 3.3 7.8 3.8 11.1 1l13.4-11.2c.9 1 1.8 1.9 2.7 2.8l-16.3 19.4c3.3 2.8 8.3 2.4 11.1-1l11.1-13.2c1 .8 2.1 1.6 3.2 2.3l-12.5 21.7c3.8 2.2 8.6.9 10.8-2.9l8.5-14.7c1.2.6 2.4 1.2 3.6 1.7l-15.5 42.5c4.1 1.5 8.6-.6 10.1-4.7l12.7-35c1.2.4 2.5.7 3.8 1l-10.8 61c4.3.8 8.4-2.1 9.1-6.4l9.4-53.2c1.3.2 2.7.3 4 .4v75c0 2.9 1.6 5.5 3.9 6.8 2.4-1.4 3.9-3.9 3.9-6.8v-75c1.3-.1 2.7-.2 4-.4l9.4 53.2c.8 4.3 4.8 7.1 9.1 6.4l-10.8-61c1.3-.3 2.5-.6 3.8-1l12.7 35c1.5 4.1 6 6.2 10.1 4.7l-15.5-42.5c1.2-.5 2.4-1.1 3.6-1.7l8.5 14.7c2.2 3.8 7 5.1 10.8 2.9l-12.5-21.7c1.1-.7 2.1-1.5 3.2-2.3l11.1 13.2c2.8 3.3 7.8 3.8 11.1 1L196 171c.9-.9 1.8-1.9 2.7-2.8l13.4 11.2c3.3 2.8 8.3 2.4 11.1-1L203.6 162c.7-1.1 1.5-2.1 2.1-3.2l15.4 8.9c3.8 2.2 8.6.9 10.8-2.9l-22.4-13c.5-1.1 1-2.3 1.5-3.5l17 6.2c4.1 1.5 8.6-.6 10.1-4.7l-24.7-9 .9-3.6 18.2 3.2c4.3.8 8.4-2.1 9.1-6.4l-26.2-4.6c.1-1.2.2-2.4.2-3.7H235zm-97.4-23.2h16l-10.2 6.4-5.8-6.4z"/></svg>