<svg 
 xmlns="http://www.w3.org/2000/svg"
 xmlns:xlink="http://www.w3.org/1999/xlink"
 width="20px" height="21px">
<path fill-rule="evenodd"  fill="rgb(168, 153, 104)"
 d="M19.630,19.693 C19.408,19.917 19.117,20.029 18.826,20.029 C18.536,20.029 18.246,19.917 18.024,19.695 L14.498,16.152 C12.886,17.416 10.943,18.055 8.997,18.055 C6.699,18.055 4.401,17.175 2.651,15.416 C2.651,15.416 2.650,15.416 2.650,15.416 C0.956,13.713 0.023,11.447 0.023,9.037 C0.023,6.627 0.956,4.361 2.650,2.656 C6.150,-0.859 11.838,-0.859 15.332,2.658 C18.548,5.897 18.797,10.997 16.096,14.531 L19.628,18.078 C20.071,18.524 20.072,19.247 19.630,19.693 ZM13.727,4.273 C11.116,1.647 6.868,1.647 4.254,4.272 C2.990,5.545 2.293,7.237 2.293,9.037 C2.293,10.836 2.990,12.528 4.254,13.800 C6.869,16.429 11.119,16.431 13.728,13.803 C16.338,11.178 16.337,6.902 13.727,4.273 Z"/>
</svg>