<svg 
 xmlns="http://www.w3.org/2000/svg"
 xmlns:xlink="http://www.w3.org/1999/xlink"
 width="30px" height="30px">
<path fill-rule="evenodd"  fill="rgb(255, 255, 255)"
 d="M29.909,21.185 C29.836,22.781 29.582,23.873 29.212,24.826 C28.432,26.841 26.840,28.433 24.825,29.213 C23.870,29.583 22.784,29.837 21.184,29.910 C19.584,29.982 19.074,30.000 15.000,30.000 C10.926,30.000 10.412,29.983 8.816,29.910 C7.219,29.837 6.128,29.583 5.175,29.213 C4.174,28.836 3.268,28.245 2.518,27.483 C1.756,26.733 1.165,25.827 0.789,24.826 C0.418,23.872 0.165,22.785 0.092,21.185 C0.018,19.585 0.001,19.075 0.001,15.001 C0.001,10.928 0.019,10.413 0.092,8.817 C0.164,7.221 0.418,6.130 0.792,5.176 C1.167,4.176 1.757,3.269 2.518,2.520 C3.268,1.757 4.174,1.166 5.175,0.790 C6.129,0.419 7.218,0.164 8.818,0.090 C10.418,0.017 10.929,-0.000 15.002,-0.000 L15.000,0.002 C19.074,0.002 19.588,0.020 21.184,0.093 C22.780,0.165 23.870,0.419 24.825,0.793 C25.825,1.168 26.732,1.758 27.481,2.520 C28.244,3.269 28.835,4.175 29.212,5.176 C29.582,6.130 29.836,7.217 29.909,8.817 C29.981,10.417 29.999,10.928 29.999,15.001 C29.999,19.075 29.982,19.589 29.909,21.185 ZM27.211,8.942 C27.144,7.480 26.900,6.686 26.695,6.157 C26.455,5.505 26.071,4.915 25.573,4.431 C25.088,3.932 24.498,3.549 23.846,3.308 C23.317,3.103 22.523,2.859 21.061,2.792 C19.479,2.720 19.005,2.705 15.000,2.705 L15.002,2.702 C10.997,2.702 10.523,2.718 8.941,2.790 C7.479,2.856 6.685,3.100 6.156,3.306 C5.504,3.546 4.914,3.930 4.430,4.428 C3.931,4.913 3.547,5.503 3.307,6.155 C3.102,6.684 2.858,7.478 2.791,8.940 C2.719,10.522 2.704,10.996 2.704,15.001 C2.704,19.006 2.719,19.480 2.791,21.062 C2.858,22.524 3.102,23.319 3.307,23.847 C3.547,24.500 3.931,25.090 4.430,25.574 C4.914,26.072 5.504,26.456 6.156,26.696 C6.685,26.901 7.479,27.146 8.941,27.212 C10.523,27.284 10.997,27.300 15.002,27.300 C19.007,27.300 19.482,27.284 21.063,27.212 C22.526,27.146 23.320,26.901 23.848,26.696 C25.156,26.191 26.190,25.157 26.695,23.850 C26.900,23.321 27.144,22.526 27.211,21.064 C27.283,19.482 27.299,19.009 27.299,15.003 C27.299,10.998 27.283,10.524 27.211,8.942 ZM23.007,8.794 C22.013,8.794 21.207,7.988 21.207,6.994 C21.207,6.000 22.013,5.194 23.007,5.194 C24.001,5.194 24.806,6.000 24.806,6.994 C24.806,7.988 24.001,8.794 23.007,8.794 ZM22.702,15.002 C22.702,19.255 19.254,22.704 15.000,22.704 C10.746,22.704 7.297,19.255 7.297,15.002 C7.297,10.748 10.746,7.299 15.000,7.299 C15.001,7.299 15.001,7.299 15.002,7.299 C19.255,7.300 22.703,10.748 22.702,15.001 C22.702,15.001 22.702,15.001 22.702,15.002 ZM15.000,9.998 C12.238,9.998 9.999,12.237 9.999,14.999 C9.999,17.761 12.238,20.000 15.000,20.000 C17.762,20.000 20.001,17.761 20.001,14.999 C20.001,12.237 17.762,9.998 15.000,9.998 Z"/>
</svg>