<svg 
 xmlns="http://www.w3.org/2000/svg"
 xmlns:xlink="http://www.w3.org/1999/xlink"
 width="30px" height="26px">
<path fill-rule="evenodd"  fill="rgb(255, 255, 255)"
 d="M30.000,3.690 C28.876,4.188 27.685,4.514 26.464,4.659 C27.750,3.891 28.712,2.682 29.171,1.257 C27.963,1.974 26.641,2.479 25.263,2.751 C22.930,0.273 19.030,0.156 16.553,2.489 C14.957,3.992 14.280,6.229 14.774,8.364 C9.824,8.116 5.211,5.778 2.085,1.931 C0.453,4.744 1.288,8.341 3.993,10.148 C3.016,10.118 2.060,9.855 1.206,9.380 L1.206,9.457 C1.206,12.388 3.272,14.912 6.144,15.492 C5.238,15.741 4.287,15.778 3.364,15.602 C4.172,18.104 6.479,19.818 9.108,19.870 C6.928,21.581 4.235,22.508 1.464,22.504 C0.975,22.505 0.486,22.477 -0.000,22.421 C2.815,24.230 6.091,25.190 9.437,25.186 C20.758,25.186 26.948,15.808 26.948,7.674 C26.948,7.407 26.942,7.142 26.931,6.879 C28.135,6.006 29.174,4.927 30.000,3.690 L30.000,3.690 Z"/>
</svg>