<svg 
 xmlns="http://www.w3.org/2000/svg"
 xmlns:xlink="http://www.w3.org/1999/xlink"
 width="30px" height="30px">
<path fill-rule="evenodd"  fill="rgb(255, 255, 255)"
 d="M28.347,-0.000 L1.659,-0.000 C0.745,-0.001 0.003,0.739 0.003,1.653 C0.003,1.654 0.003,1.655 0.003,1.655 L0.003,28.344 C0.002,29.258 0.742,29.999 1.656,30.000 C1.657,30.000 1.658,30.000 1.659,30.000 L16.027,30.000 L16.027,18.383 L12.118,18.383 L12.118,13.855 L16.027,13.855 L16.027,10.515 C16.027,6.641 18.393,4.531 21.850,4.531 C23.017,4.527 24.183,4.587 25.344,4.710 L25.344,8.756 L22.947,8.756 C21.067,8.756 20.699,9.650 20.699,10.961 L20.699,13.852 L25.182,13.852 L24.598,18.379 L20.698,18.379 L20.698,30.000 L28.341,30.000 C29.255,30.000 29.997,29.260 29.997,28.346 C29.997,28.345 29.997,28.345 29.997,28.344 L29.997,1.655 C29.998,0.743 29.260,0.002 28.347,-0.000 Z"/>
</svg>